<?xml version="1.0" encoding="UTF-8"?>
<svg width="61px" height="38px" viewBox="0 0 61 38" version="1.1" xmlns="http://www.w3.org/2000/svg" xmlns:xlink="http://www.w3.org/1999/xlink">
    <title>Alert_Notification</title>
    <g id="Homev1" stroke="none" stroke-width="1" fill="#6c757d" fill-rule="evenodd">
        <g id="Home--Main-Unscroll-Brightlogo" transform="translate(-993.000000, -732.000000)">
            <g id="Alert_Notification" transform="translate(-6.000000, 696.000000)">
                <g transform="translate(999.000000, 36.000000)" id="Group" fill="#6c757d" fill-rule="nonzero">
                    <path d="M52.1041667,11.1466667 C51.5322917,10.3233333 50.4520833,10.1966667 49.6895833,10.83 C49.1177083,11.3366667 48.990625,12.2866667 49.4354167,12.92 C50.6427083,14.63 51.3416667,16.72 51.3416667,18.9366667 C51.3416667,21.1533333 50.6427083,23.2433333 49.4354167,24.9533333 C48.990625,25.5866667 49.1177083,26.4733333 49.6895833,27.0433333 L49.6895833,27.0433333 C50.4520833,27.74 51.5322917,27.6133333 52.1041667,26.7266667 C53.6291667,24.51 54.51875,21.7866667 54.51875,18.8733333 C54.51875,16.0866667 53.6291667,13.4266667 52.1041667,11.1466667 Z" id="Path"></path>
                    <path d="M56.80625,7.47333333 C56.234375,6.71333333 55.1541667,6.65 54.4552083,7.28333333 L54.4552083,7.28333333 C53.8197917,7.85333333 53.75625,8.80333333 54.2645833,9.43666667 C56.2979167,12.0966667 57.4416667,15.4533333 57.4416667,19 C57.4416667,22.61 56.234375,25.9033333 54.2645833,28.5633333 C53.75625,29.26 53.8197917,30.1466667 54.4552083,30.7166667 L54.4552083,30.7166667 C55.1541667,31.35 56.234375,31.2866667 56.80625,30.5266667 C59.2208333,27.2966667 60.6822917,23.3066667 60.6822917,19 C60.6822917,14.6933333 59.2208333,10.64 56.80625,7.47333333 Z" id="Path"></path>
                    <path d="M9.65833333,19 C9.65833333,16.7833333 10.3572917,14.6933333 11.5645833,12.9833333 C12.009375,12.35 11.8822917,11.4633333 11.3104167,10.8933333 C10.5479167,10.1966667 9.46770833,10.3233333 8.89583333,11.21 C7.37083333,13.4266667 6.48125,16.15 6.48125,19.0633333 C6.48125,21.9766667 7.37083333,24.6366667 8.89583333,26.9166667 C9.46770833,27.74 10.5479167,27.8666667 11.3104167,27.2333333 L11.3104167,27.2333333 C11.8822917,26.7266667 12.009375,25.7766667 11.5645833,25.1433333 C10.3572917,23.3066667 9.65833333,21.2166667 9.65833333,19 Z" id="Path"></path>
                    <path d="M3.55833333,19 C3.55833333,15.39 4.765625,12.0966667 6.73541667,9.43666667 C7.24375,8.74 7.18020833,7.85333333 6.54479167,7.28333333 L5.84583333,6.65 C5.528125,6.39666667 5.08333333,6.39666667 4.82916667,6.71333333 C2.03333333,10.07 0.317708333,14.3133333 0.317708333,19 C0.317708333,23.3066667 1.77916667,27.36 4.19375,30.5266667 C4.765625,31.2866667 5.84583333,31.35 6.54479167,30.7166667 L6.54479167,30.7166667 C7.18020833,30.1466667 7.24375,29.1966667 6.73541667,28.5633333 C4.70208333,25.9033333 3.55833333,22.61 3.55833333,19 Z" id="Path"></path>
                    <path d="M42.9541667,19.4433333 L42.9541667,15.77 C42.9541667,9.69 39.1416667,5.13 33.359375,3.92666667 L33.359375,2.47 C33.359375,1.26666667 32.3427083,0.253333333 31.1354167,0.253333333 L29.8645833,0.253333333 C28.59375,0.253333333 27.640625,1.26666667 27.640625,2.47 L27.640625,3.92666667 C21.8583333,5.13 18.0458333,9.75333333 18.0458333,15.77 L18.0458333,19.4433333 C18.0458333,21.28 17.4104167,23.0533333 16.3302083,24.6366667 C15.8854167,25.27 15.63125,25.9666667 15.63125,26.79 L15.63125,27.1066667 C15.63125,29.1966667 17.346875,30.9066667 19.44375,30.9066667 L41.55625,30.9066667 C43.653125,30.9066667 45.36875,29.1966667 45.36875,27.1066667 L45.36875,26.79 C45.36875,25.9666667 45.1145833,25.27 44.6697917,24.6366667 C43.5895833,23.1166667 42.9541667,21.3433333 42.9541667,19.4433333 Z" id="Path"></path>
                    <path d="M30.5,37.7466667 C32.7239583,37.7466667 34.5666667,35.91 34.5666667,33.6933333 L26.4333333,33.6933333 C26.4333333,35.9733333 28.2760417,37.7466667 30.5,37.7466667 Z" id="Path"></path>
                </g>
            </g>
        </g>
    </g>
</svg>