<?xml version="1.0" encoding="UTF-8"?>
<svg width="60px" height="73px" viewBox="0 0 60 73" version="1.1" xmlns="http://www.w3.org/2000/svg" xmlns:xlink="http://www.w3.org/1999/xlink">
    <title>Congrats</title>
    <g id="Homev1" stroke="none" stroke-width="1" fill="none" fill-rule="evenodd">
        <g id="DetailedReportZeroResult-PDFbyEmail" transform="translate(-702.000000, -322.000000)" fill="#000000" fill-rule="nonzero">
            <g id="Congrats" transform="translate(702.000000, 322.000000)">
                <path d="M39.2128028,21.7514435 L25.899654,34.8830129 L20.9948097,30.0450663 C19.9826018,29.0525869 18.3478481,29.0525869 17.3356401,30.0450663 C16.8443443,30.5257037 16.5679974,31.1799678 16.5679974,31.862496 C16.5679974,32.5450241 16.8443443,33.1992882 17.3356401,33.6799257 L24.0570934,40.3097044 C24.5425729,40.7982491 25.2061093,41.0747926 25.899654,41.0776324 C26.5931987,41.0747926 27.256735,40.7982491 27.7422145,40.3097044 L42.8719723,25.3863029 C43.3632681,24.9056654 43.639615,24.2514013 43.639615,23.5688732 C43.639615,22.886345 43.3632681,22.2320809 42.8719723,21.7514435 C41.8597644,20.7589641 40.2250107,20.7589641 39.2128028,21.7514435 L39.2128028,21.7514435 Z M57.3788927,22.4937739 C56.7586346,21.8160841 56.2347939,21.0582634 55.8217993,20.241185 C55.683391,19.290417 55.683391,18.3250217 55.8217993,17.3742537 C56.1134999,15.2060507 55.6269104,13.0055124 54.4463668,11.1540366 C52.9575005,9.46453627 50.9045351,8.356708 48.6591696,8.0311292 C47.7513315,7.83122817 46.8773412,7.5036416 46.0640138,7.05842036 C45.3857463,6.4122998 44.8085162,5.67041015 44.3512111,4.85702665 C43.3143614,2.8440294 41.5981393,1.25079238 39.4982699,0.351848829 C37.3303119,-0.124852658 35.0614602,0.165078558 33.0882353,1.17097207 C32.136983,1.55219494 31.1288045,1.77702213 30.1038062,1.8365097 C29.1067985,1.72542843 28.134269,1.45752558 27.2231834,1.04298406 C25.2499585,0.0370905515 22.9811068,-0.252840664 20.8131488,0.223860822 C18.7132794,1.12280437 16.9970573,2.71604139 15.9602076,4.72903864 C15.5029025,5.54242214 14.9256724,6.28431179 14.2474048,6.93043235 C13.4340775,7.37565359 12.5600872,7.70324016 11.6522491,7.9031412 C9.35126653,8.2387422 7.25511829,9.39548207 5.76124567,11.1540366 C4.60435972,13.0604969 4.17205946,15.3104589 4.54152249,17.5022417 C4.6799308,18.4530097 4.6799308,19.418405 4.54152249,20.369173 C4.12852786,21.1862514 3.60468723,21.9440721 2.98442907,22.6217619 C1.32803798,24.1628901 0.271959552,26.228123 0,28.458015 C0.208543461,30.7287054 1.2296938,32.8520399 2.88062284,34.4478537 C3.500881,35.1255435 4.02472164,35.8833642 4.43771626,36.7004426 C4.57612457,37.6512107 4.57612457,38.6166059 4.43771626,39.5673739 C4.06825323,41.7591567 4.50055349,44.0091187 5.65743945,45.9155791 C7.17233215,47.6265717 9.26587576,48.7363899 11.5484429,49.0384864 C12.4562809,49.2383874 13.3302713,49.565974 14.1435986,50.0111953 C14.8218662,50.6573158 15.3990962,51.3992055 15.8564014,52.212589 C16.8932511,54.2255862 18.6094731,55.8188232 20.7093426,56.7177668 C21.3125426,56.911097 21.943647,57.0062007 22.5778547,56.9996867 C24.1458486,56.9007066 25.6835959,56.5280136 27.1193772,55.8986435 C28.0623623,55.4672175 29.0704309,55.1905373 30.1038062,55.0795203 C31.1017454,55.2012757 32.0739286,55.4777221 32.9844291,55.8986435 C34.957654,56.9045371 37.2265057,57.1944683 39.3944637,56.7177668 C41.5114912,55.7931731 43.2299788,54.1615752 44.2474048,52.1101986 C44.70471,51.2968151 45.2819401,50.5549254 45.9602076,49.9088049 C46.7735349,49.4635836 47.6475253,49.135997 48.5553633,48.936096 C50.8007289,48.6105172 52.8536942,47.5026889 54.3425606,45.8131887 C55.4994465,43.9067283 55.9317468,41.6567663 55.5622837,39.4649835 C55.4238754,38.5142155 55.4238754,37.5488202 55.5622837,36.5980522 C55.9752784,35.7809738 56.499119,35.0231531 57.1193772,34.3454633 C58.7703062,32.7496495 59.7914565,30.626315 60,28.3556246 C59.8183979,26.1567516 58.8744472,24.0866892 57.3269896,22.4937739 L57.3788927,22.4937739 Z M53.3564014,31.2225559 C52.2573806,32.3520344 51.3777683,33.6708094 50.7612457,35.1133913 C50.3536192,36.6491529 50.2392161,38.2463128 50.4238754,39.82335 C50.5843544,40.8599288 50.5044984,41.918905 50.1903114,42.9206597 C49.3116237,43.5195227 48.310693,43.9214239 47.2577855,44.0981494 C45.6907064,44.4179068 44.1957418,45.0164107 42.8460208,45.8643839 C41.6375746,46.9023458 40.6344962,48.1521107 39.8875433,49.5504384 C39.2387543,50.5487449 38.4342561,51.7774297 37.8114187,51.9822106 C36.7726476,51.9594587 35.7524833,51.7057087 34.8269896,51.2398801 C33.3463977,50.5287908 31.7449029,50.0948205 30.1038062,49.9600001 C28.4710425,50.0545303 26.8699152,50.445014 25.3806228,51.1118921 C24.4315998,51.5890683 23.3834946,51.8431402 22.3183391,51.8542225 C21.6955017,51.6494417 20.8910035,50.4207569 20.2422145,49.4224504 C19.4588942,48.0634799 18.429797,46.8575525 17.2058824,45.8643839 C15.8561613,45.0164107 14.3611967,44.4179068 12.7941176,44.0981494 C11.7412102,43.9214239 10.7402794,43.5195227 9.8615917,42.9206597 C9.54740474,41.918905 9.46754875,40.8599288 9.62802768,39.82335 C9.82962457,38.2494809 9.73282425,36.65236 9.34256055,35.1133913 C8.72603791,33.6708094 7.84642565,32.3520344 6.74740484,31.2225559 C5.94290657,30.2498471 5.03460208,29.1491502 5.03460208,28.458015 C5.03460208,27.7668798 5.94290657,26.6917805 6.74740484,25.7190717 C7.84642565,24.5895932 8.72603791,23.2708182 9.34256055,21.8282363 C9.75018698,20.2924747 9.86459016,18.6953148 9.6799308,17.1182776 C9.51945186,16.0816988 9.59930785,15.0227226 9.91349481,14.0209679 C10.7862232,13.4113072 11.7897326,13.0083706 12.8460208,12.8434782 C14.4168766,12.5503939 15.9205878,11.97793 17.283737,11.1540366 C18.5035964,10.1568299 19.5320232,8.95168805 20.3200692,7.59596998 C20.9688581,6.59766353 21.7733564,5.36897867 22.3961938,5.03620986 L22.6816609,5.03620986 C23.5788585,5.17124718 24.4524198,5.42974118 25.2768166,5.8041379 C26.7981197,6.48391514 28.4357145,6.87470374 30.1038062,6.95602995 C31.735006,6.87016324 33.3361705,6.48834816 34.8269896,5.8297355 C35.7760127,5.35255931 36.8241179,5.09848737 37.8892734,5.08740506 C38.5121107,5.29218587 39.2647059,6.46967553 39.9653979,7.64716519 C40.7352281,8.97834251 41.736676,10.1654224 42.9238754,11.1540366 C44.2735965,12.0020097 45.7685611,12.6005136 47.3356401,12.920271 C48.3919283,13.0851634 49.3954377,13.4881 50.2681661,14.0977607 C50.582353,15.0995154 50.662209,16.1584916 50.5017301,17.1950705 C50.3351952,18.7483881 50.4583317,20.3186541 50.8650519,21.8282363 C51.4815745,23.2708182 52.3611868,24.5895932 53.4602076,25.7190717 C54.2647059,26.6917805 55.1730104,27.7924774 55.1730104,28.458015 C55.1730104,29.1235526 54.1089965,30.2498471 53.3044983,31.2225559 L53.3564014,31.2225559 Z" id="Shape"></path>
                <path d="M48.6724891,48.6198347 C47.7777523,48.8215229 46.9163747,49.1520381 46.1147848,49.6012397 L45.9868996,49.7303719 L45.9868996,66.8274793 L31.3056769,61.8688017 C30.770829,61.7138044 30.203594,61.7138044 29.6687461,61.8688017 L14.8852152,66.8274793 L14.8852152,49.7303719 L14.8852152,49.6012397 C14.0836253,49.1520381 13.2222477,48.8215229 12.3275109,48.6198347 C11.6625078,48.4390496 10.9719276,48.232438 10.3069245,48 C10.1127949,48.3471935 10.0073151,48.7377239 10,49.1363636 L10,70.4173554 C10.0038067,71.2485986 10.4036171,72.0271802 11.0742358,72.5092975 C11.743865,72.9873881 12.5999262,73.1122471 13.3761697,72.8450413 L30.3849033,67.0599174 L47.6238303,72.8450413 C47.8852086,72.9459554 48.1624669,72.9984483 48.4422957,73 C49.8548768,73 51,71.8437106 51,70.4173554 L51,49.1363636 C50.9926849,48.7377239 50.8872051,48.3471935 50.6930755,48 C50.0280724,48.232438 49.3374922,48.4390496 48.6724891,48.6198347 Z" id="Path"></path>
            </g>
        </g>
    </g>
</svg>