<?xml version="1.0" encoding="UTF-8"?>
<svg width="77px" height="104px" viewBox="0 0 77 104" version="1.1" xmlns="http://www.w3.org/2000/svg" xmlns:xlink="http://www.w3.org/1999/xlink">
    <title>head_boar_3106987</title>
    <g id="Homev1" stroke="none" stroke-width="1" fill="none" fill-rule="evenodd">
        <g id="head_boar_3106987" transform="translate(-648.000000, -299.000000)">
            <g transform="translate(648.000000, 299.000000)">
                <path d="M12.3483361,44 C12.3483361,43.776 12.3483361,43.544 12.3483361,43.3120001 C12.4369715,36.1352521 13.8375344,29.0338315 16.482128,22.3520021 C17.9585808,18.3089663 20.5691216,14.7675535 24.0069211,12.144003 C24.3352561,11.8986697 24.6662824,11.6666697 25,11.4480031 C21.3748583,6.30400358 15.3275729,0.176004165 6.93888189,0 C6.51703028,-0.00133538405 6.1652468,0.319346603 6.13150066,0.736004111 C6.13150066,0.880004098 4.88005976,15.4000027 1.58594434,21.2640022 C-0.432508736,24.8560018 -0.795830289,31.7520012 2.10266833,37.0720007 C4.11508594,40.950107 7.97016978,43.5568691 12.3483361,44 Z" id="Path" fill="#4B00A7" fill-rule="nonzero"></path>
                <path d="M60.4874351,22.3481899 C63.1441066,29.0278399 64.5480502,36.1321353 64.6302079,43.3116245 C64.6302079,43.5437511 64.6302079,43.7758778 64.6302079,44 C68.970396,43.5773966 72.8057216,41.0210056 74.8377416,37.1962889 C77.793404,31.8573768 77.4542297,24.909587 75.4111078,21.2756049 C72.116271,15.4084046 70.8726316,0.880480262 70.864556,0.736401674 C70.8134978,0.328107302 70.4717445,0.0164669153 70.056998,0 C61.3838245,0.184100418 55.214081,6.88375478 52,11.438239 C52.2180407,11.5743133 52.4360813,11.7263962 52.654122,11.8864835 C56.2506742,14.530038 58.9764711,18.1704499 60.4874351,22.3481899 Z" id="Path" fill="#4B00A7" fill-rule="nonzero"></path>
                <path d="M38.5194624,86 C33.301916,86 27,90.3705318 27,95.8003487 C27,96.0985179 27,96.3888405 27,96.6713165 C27.5186115,101.261552 31.7932279,104 38.5194624,104 C45.245697,104 49.5203133,101.261552 49.9998189,96.6634699 C49.9998189,96.3888405 49.9998189,96.0985179 49.9998189,95.8003487 C50.0389249,90.3705318 43.7370089,86 38.5194624,86 Z M34.1191221,99.2214473 C32.7060863,99.3942519 31.3332715,98.6764621 30.6705524,97.4183284 C30.0078333,96.1601947 30.1933196,94.6239103 31.136502,93.5591163 C32.0796843,92.4943222 33.5840049,92.1229199 34.9154197,92.6261377 C36.2468345,93.1293556 37.1278788,94.4023238 37.1286406,95.8238884 C37.2273093,97.5885785 35.8851557,99.1037862 34.1191221,99.2214473 L34.1191221,99.2214473 Z M42.9198028,99.2214473 C41.5067671,99.3942519 40.1339522,98.6764621 39.4712331,97.4183284 C38.808514,96.1601947 38.9940003,94.6239103 39.9371827,93.5591163 C40.880365,92.4943222 42.3846856,92.1229199 43.7161004,92.6261377 C45.0475153,93.1293556 45.9285595,94.4023238 45.9293213,95.8238884 C46.0323611,97.5900911 44.6878736,99.1079337 42.9198028,99.2214473 Z" id="Shape" fill="#4B00A7" fill-rule="nonzero"></path>
                <path d="M63.1822561,48.6515064 C63.4012417,46.9496965 63.5018985,45.2347679 63.4835028,43.51905 C63.4033193,36.6069099 62.0600139,29.7675454 59.5197306,23.3377249 C58.1432961,19.492865 55.6612761,16.1396229 52.3849406,13.6985284 C48.608289,11.0199863 44.0201907,9.72986275 39.3996228,10.0471976 L38.6068683,10.0471976 C33.8496743,9.72155727 29.1316594,11.0972336 25.2965212,13.9282216 C22.1597497,16.3475381 19.7805149,19.6122826 18.4391953,23.3377249 C15.9037694,29.7717243 14.5606584,36.6127828 14.4754231,43.5269705 C14.4573381,45.2347832 14.5579958,46.9417888 14.7766698,48.6356654 C12.3349861,50.7425071 -1.56992686,63.6845343 1.4187574,81.5768473 C1.47631225,81.9386054 1.77464188,82.2137404 2.14016394,82.2421657 C3.58319017,82.3827949 5.01572193,82.6156047 6.42896548,82.9391659 C7.07902412,81.9728702 8.13338753,80.1749263 7.81628576,79.0581419 C7.60166792,78.3881175 7.67636554,77.6590316 8.02240191,77.0463457 C8.63467475,76.1633877 9.54294825,75.5284456 10.5829988,75.2563224 C10.7880622,75.2010219 11.0067601,75.2302503 11.1900662,75.3374555 C11.3733722,75.4446607 11.5059528,75.6208748 11.5580867,75.8265953 C11.6110239,76.0303737 11.5805808,76.2468244 11.4734823,76.4281346 C11.3663839,76.6094448 11.1914431,76.7406944 10.9873035,76.7928911 C10.3571984,76.9511025 9.79872032,77.3165786 9.40179464,77.830471 C9.26485998,78.0722473 9.24165385,78.3620647 9.33837429,78.6225167 C9.78231678,80.151165 8.86272162,82.0520747 8.05411209,83.3747911 C9.79023688,83.8241242 11.4849229,84.4203112 13.119813,85.156894 C13.1896532,84.4325286 13.1896532,83.7031336 13.119813,82.9787682 C12.9114623,82.3072713 12.9888715,81.5797024 13.3338567,80.9669721 C13.9460493,80.0804418 14.8582168,79.4447457 15.9023811,79.1769487 C16.1822755,79.0843958 16.4904571,79.154675 16.7024379,79.3593977 C16.9144188,79.5641204 16.9951777,79.8694644 16.9120927,80.1520881 C16.8290078,80.4347118 16.5958053,80.6479232 16.3066858,80.705597 C15.6772269,80.8698295 15.119789,81.2374096 14.721177,81.7510973 C14.5847195,81.9926457 14.5587324,82.2811332 14.6498291,82.5431431 C14.7804586,83.6693598 14.7804586,84.8068821 14.6498291,85.9330988 C16.8427909,87.05944 18.7221542,88.7112569 20.1198347,90.7408164 C19.9708314,90.063356 19.8570508,89.3786392 19.7789503,88.6894179 C19.7789503,85.8697351 21.959025,83.2401433 25.8038841,81.3709154 C25.9846804,79.9068322 26.7262971,78.5697089 27.8729732,77.64038 C29.7755838,76.3255841 32.4709489,77.1176298 32.5819346,77.1493117 C32.9285925,77.2539025 33.1602518,77.5798915 33.1447902,77.9413574 C33.1447902,78.0601643 32.9148914,80.8560857 31.0202083,82.1629611 C30.2065262,82.6967812 29.2505376,82.9728315 28.2772779,82.9550069 C27.6976359,82.9559687 27.1200085,82.8868218 26.5570008,82.749075 C23.2512148,84.3331664 21.3803143,86.4637694 21.3803143,88.6656566 C21.3803143,88.9983158 21.9352424,91.6754303 22.39504,93.7505901 C23.4268596,94.6551984 24.5794382,95.4122347 25.8197392,96 C25.8197392,95.7861477 25.8197392,95.5722953 25.8197392,95.358443 C25.8197392,88.8953498 32.9545292,83.8817004 39.0270282,83.8817004 C45.0995272,83.8817004 52.2343172,88.8953498 52.2343172,95.358443 C52.2343172,95.5802158 52.2343172,95.7861477 52.2343172,96 C53.5975298,95.3626224 54.8521421,94.5153803 55.9523356,93.489215 C56.2694373,91.7863167 56.6816697,89.0458385 56.6816697,88.6656566 C56.6816697,86.4637694 54.8107692,84.3410869 51.5049831,82.749075 C50.9386437,82.8832481 50.3588162,82.95234 49.7767784,82.9550069 C48.8035188,82.9728315 47.8475302,82.6967812 47.0338481,82.1629611 C45.139165,80.8560857 44.9171937,78.0601643 44.9092662,77.9413574 C44.8938046,77.5798915 45.1254639,77.2539025 45.4721218,77.1493117 C45.591035,77.1493117 48.2784726,76.3572659 50.1810832,77.64038 C51.3112312,78.5609527 52.0458921,79.8787594 52.2343172,81.3233927 C56.0871038,83.1926206 58.2671785,85.8301328 58.2671785,88.6498156 C58.2671785,88.8953498 58.172048,89.6319523 58.0372798,90.5428049 C59.4463,88.5606432 61.3150119,86.9490631 63.4835028,85.8459738 C63.2946724,84.7386527 63.2732941,83.6092831 63.4200824,82.4956203 C63.5133058,82.2338756 63.4872371,81.9444826 63.3487345,81.7035746 C62.9489044,81.1912019 62.3919532,80.8239427 61.7632256,80.6580742 C61.4741062,80.6004004 61.2409037,80.387189 61.1578187,80.1045653 C61.0747338,79.8219416 61.1554927,79.5165976 61.3674736,79.311875 C61.5794544,79.1071523 61.887636,79.036873 62.1675304,79.129426 C63.2116947,79.3972229 64.1238622,80.0329191 64.7360548,80.9194493 C65.08104,81.5321796 65.1584492,82.2597486 64.9500985,82.9312455 C64.8608039,83.6492464 64.8608039,84.3755294 64.9500985,85.0935303 C66.5908684,84.3580105 68.2907286,83.7618691 70.0316545,83.3114274 C69.2943928,82.3134498 68.160754,80.4046196 68.6760444,78.6145963 C68.7706037,78.3538492 68.747472,78.0649615 68.612624,77.8225505 C68.2095947,77.3169252 67.6532315,76.9556124 67.0271151,76.7928911 C66.8229756,76.7406944 66.6480348,76.6094448 66.5409363,76.4281346 C66.4338378,76.2468244 66.4033948,76.0303737 66.4563319,75.8265953 C66.5084659,75.6208748 66.6410464,75.4446607 66.8243525,75.3374555 C67.0076585,75.2302503 67.2263565,75.2010219 67.4314199,75.2563224 C68.4714704,75.5284456 69.3797439,76.1633877 69.9920168,77.0463457 C70.3380531,77.6590316 70.4127508,78.3881175 70.1981329,79.0581419 C69.7383353,80.6422333 71.640946,82.8124386 71.6568011,82.8203591 C71.6726562,82.8282795 71.6568011,82.8837227 71.7202214,82.9074841 C73.0903547,82.6030091 74.4775186,82.3808381 75.8742547,82.2421657 C76.2397768,82.2137404 76.5381064,81.9386054 76.5956613,81.5768473 C79.5288527,63.6607729 65.6239398,50.758348 63.1822561,48.6515064 Z M29.9499898,60.6668401 L29.8627868,60.769806 C29.8321667,60.8029879 29.7975504,60.8322524 29.7597288,60.856931 C26.4380876,63.8983866 27.4369582,66.8527172 27.476596,66.9794445 C27.627646,67.3906332 27.4164636,67.8463082 27.004907,67.9972232 C26.5933504,68.1481382 26.1372677,67.9371447 25.9862176,67.5259561 C25.9307248,67.3596265 24.5434045,63.4627615 28.7132929,59.6688624 C29.8940707,58.2447298 30.6056426,56.4909038 30.7506718,54.6472925 C30.2798398,54.7047551 29.8059727,54.7338494 29.3316414,54.7344176 C27.7039621,54.799427 26.0998734,54.3292036 24.7653758,53.3958603 C22.0620831,51.31278 21.959025,47.1070172 21.9510975,46.9248467 C21.9410587,46.5496851 22.1959257,46.2189849 22.5615184,46.1328009 C22.7359244,46.1328009 26.8344649,45.1348233 29.5377575,47.2179036 C32.2410502,49.3009839 32.3520358,53.5067467 32.3520358,53.6889172 C32.3563048,53.7469222 32.3563048,53.8051622 32.3520358,53.8631673 L32.3520358,53.8631673 C32.4194093,56.34955 31.5638248,58.7729494 29.9499898,60.6668401 L29.9499898,60.6668401 Z M53.177695,53.3958603 C51.8431974,54.3292036 50.2391086,54.799427 48.6114294,54.7344176 C48.137098,54.7338494 47.6632309,54.7047551 47.192399,54.6472925 C47.3348682,56.4915065 48.0467426,58.2460781 49.2297779,59.6688624 C53.3996663,63.454841 52.012346,67.3596265 51.9568532,67.5259561 C51.8407432,67.8364435 51.5434099,68.0418625 51.211664,68.04079 C51.1171722,68.040496 51.0233931,68.0244339 50.9341999,67.993263 C50.7361545,67.920275 50.5754225,67.7713866 50.4876248,67.5795937 C50.3998271,67.3878009 50.3922148,67.1689436 50.4664748,66.9715241 C50.4664748,66.8527172 51.5049831,63.8983866 48.183342,60.856931 C48.1455204,60.8322524 48.1109041,60.8029879 48.0802839,60.769806 L47.993081,60.6668401 C46.3915155,58.7735976 45.5447697,56.3568897 45.6148176,53.8790082 L45.6148176,53.8790082 C45.6105486,53.8210031 45.6105486,53.7627632 45.6148176,53.7047581 C45.6148176,53.5225876 45.7258032,49.3168248 48.4290959,47.2337445 C49.7635935,46.3004012 51.3676823,45.8301778 52.9953615,45.8951872 C53.7947152,45.8980099 54.5916602,45.9829414 55.3736248,46.1486419 C55.7392175,46.2348258 55.9940845,46.565526 55.9840457,46.9406876 C55.9840457,47.1070172 55.8809877,51.3444618 53.177695,53.3958603 Z" id="Shape" fill="#4B00A7" fill-rule="nonzero"></path>
            </g>
        </g>
    </g>
</svg>