<?xml version="1.0" encoding="UTF-8"?>
<svg width="33px" height="34px" viewBox="0 0 33 34" version="1.1" xmlns="http://www.w3.org/2000/svg" xmlns:xlink="http://www.w3.org/1999/xlink">
    <title>malicious-danger</title>
    <g id="Homev1" stroke="none" stroke-width="1" fill="none" fill-rule="evenodd">
        <g id="DetailedReport-PDFbyEmail" transform="translate(-1239.000000, -526.000000)">
            <g id="MaliciousOrNot" transform="translate(69.000000, 116.000000)">
                <g transform="translate(1165.000000, 410.000000)" id="malicious-danger">
                    <g transform="translate(5.000000, 0.000000)" id="Group" fill="#4B00A7" fill-rule="nonzero">
                        <ellipse id="Oval" cx="12.4892308" cy="15.1969697" rx="1.06615385" ry="1.08181818"></ellipse>
                        <ellipse id="Oval" cx="19.7492308" cy="15.1969697" rx="1.06615385" ry="1.08181818"></ellipse>
                        <path d="M26.8569231,16.5363636 C26.8569231,11.0242424 22.0338462,6.54242424 16.0938462,6.54242424 C10.1538462,6.54242424 5.33076923,11.0242424 5.33076923,16.5363636 C5.33076923,20.2454545 7.61538462,23.6969697 11.1184615,25.3969697 L11.1184615,26.9939394 C11.1184615,27.9727273 11.88,28.7454545 12.8446154,28.7454545 L19.3938462,28.7454545 C20.3076923,28.7454545 21.12,27.9727273 21.12,26.9939394 L21.12,25.3969697 C24.6230769,23.6969697 26.8569231,20.2454545 26.8569231,16.5363636 Z M12.4892308,17.2575758 C11.3723077,17.2575758 10.4584615,16.330303 10.4584615,15.1969697 C10.4584615,14.0636364 11.3723077,13.1363636 12.4892308,13.1363636 C13.6061538,13.1363636 14.52,14.0636364 14.52,15.1969697 C14.4692308,16.330303 13.5553846,17.2575758 12.4892308,17.2575758 Z M18.8353846,24.5727273 L18.48,24.5727273 L18.48,24.7787879 C18.48,25.0363636 18.2769231,25.2939394 17.9723077,25.2939394 C17.6676923,25.2939394 17.4646154,25.0878788 17.4646154,24.7787879 L17.4646154,24.5727273 L16.5507692,24.5727273 L16.5507692,24.7787879 C16.5507692,25.0363636 16.3476923,25.2939394 16.0430769,25.2939394 C15.7384615,25.2939394 15.5353846,25.0878788 15.5353846,24.7787879 L15.5353846,24.5727273 L14.7230769,24.5727273 L14.7230769,24.7787879 C14.7230769,25.0363636 14.52,25.2939394 14.2153846,25.2939394 C13.9107692,25.2939394 13.7076923,25.0878788 13.7076923,24.7787879 L13.7076923,24.5727273 L13.3523077,24.5727273 C13.0984615,24.5727273 12.8446154,24.3666667 12.8446154,24.0575758 C12.8446154,23.8 13.0476923,23.5424242 13.3523077,23.5424242 L13.7076923,23.5424242 L13.7076923,23.3363636 C13.7076923,23.0787879 13.9107692,22.8212121 14.2153846,22.8212121 C14.52,22.8212121 14.7230769,23.0272727 14.7230769,23.3363636 L14.7230769,23.5424242 L15.6369231,23.5424242 L15.6369231,23.3363636 C15.6369231,23.0787879 15.84,22.8212121 16.1446154,22.8212121 C16.4492308,22.8212121 16.6523077,23.0272727 16.6523077,23.3363636 L16.6523077,23.5424242 L17.5661538,23.5424242 L17.5661538,23.3363636 C17.5661538,23.0787879 17.7692308,22.8212121 18.0738462,22.8212121 C18.3784615,22.8212121 18.5815385,23.0272727 18.5815385,23.3363636 L18.5815385,23.5424242 L18.9369231,23.5424242 C19.1907692,23.5424242 19.4446154,23.7484848 19.4446154,24.0575758 C19.3430769,24.3151515 19.0892308,24.5727273 18.8353846,24.5727273 Z M19.7492308,17.2575758 C18.6323077,17.2575758 17.7184615,16.330303 17.7184615,15.1969697 C17.7184615,14.0636364 18.6323077,13.1363636 19.7492308,13.1363636 C20.8661538,13.1363636 21.78,14.0636364 21.78,15.1969697 C21.78,16.330303 20.8661538,17.2575758 19.7492308,17.2575758 Z" id="Shape"></path>
                        <path d="M7.15846154,23.6454545 L4.67076923,26.169697 C4.16307692,25.7060606 3.55384615,25.5515152 2.89384615,25.6545455 C0.913846154,25.9636364 -0.406153846,28.4363636 1.32,30.1363636 C1.77692308,30.6 2.43692308,30.9090909 3.09692308,30.9090909 C3.09692308,31.5787879 3.40153846,32.1969697 3.85846154,32.7121212 C5.43230769,34.3090909 7.76769231,33.2787879 8.22461538,31.3727273 C8.37692308,30.6515152 8.22461538,29.8787879 7.71692308,29.2606061 L10.2046154,26.7363636 L10.2046154,26.0666667 C9.03692308,25.3454545 8.02153846,24.5727273 7.15846154,23.6454545 Z" id="Path"></path>
                        <path d="M29.5984615,25.7060606 C28.8876923,25.5515152 28.1261538,25.7060606 27.5169231,26.2212121 L24.9784615,23.6969697 C24.1661538,24.6242424 23.1507692,25.3969697 22.0338462,26.0151515 L22.0338462,26.7878788 L24.4707692,29.2606061 C24.0138462,29.7757576 23.8615385,30.3939394 23.9630769,31.0636364 C24.2676923,33.1242424 26.7046154,34.3606061 28.38,32.6606061 C28.8369231,32.1969697 29.0907692,31.5272727 29.1415385,30.8575758 C29.8015385,30.8575758 30.4107692,30.6 30.9184615,30.0848485 C32.4923077,28.4878788 31.4261538,26.1181818 29.5984615,25.7060606 Z" id="Path"></path>
                        <path d="M4.72153846,9.06666667 L6.24461538,10.6121212 C7.05692308,9.42727273 8.07230769,8.44848485 9.29076923,7.62424242 L7.71692308,6.02727273 C8.17384615,5.51212121 8.32615385,4.89393939 8.22461538,4.22424242 C7.71692308,0.824242424 3.09692308,1.28787879 3.04615385,4.37878788 C2.38615385,4.37878788 1.77692308,4.63636364 1.26923077,5.15151515 C-1.01538462,7.52121212 2.28461538,11.0242424 4.72153846,9.06666667 Z" id="Path"></path>
                        <path d="M32.0353846,4.68787879 C31.4261538,4.06969697 30.6138462,3.76060606 29.7507692,3.76060606 C29.8523077,0.0515151515 24.42,-0.875757576 23.5061538,3.03939394 C23.3030769,4.01818182 23.5061538,4.94545455 24.2169231,5.71818182 L22.5923077,7.36666667 C24.0646154,8.29393939 25.3338462,9.53030303 26.2476923,11.0242424 L27.7707692,9.47878788 C28.3292308,10.0454545 29.1415385,10.3030303 29.9538462,10.2 C32.4923077,9.89090909 34.1169231,6.85151515 32.0353846,4.68787879 Z" id="Path"></path>
                    </g>
                </g>
            </g>
        </g>
    </g>
</svg>