<?xml version="1.0" encoding="UTF-8"?>
<svg width="32px" height="46px" viewBox="0 0 32 46" version="1.1" xmlns="http://www.w3.org/2000/svg" xmlns:xlink="http://www.w3.org/1999/xlink">
    <title>Report-doc</title>
    <g id="Homev1" stroke="none" stroke-width="1" fill="none" fill-rule="evenodd">
        <g id="DetailedReportZeroResult-PDFbyEmail" transform="translate(-353.000000, -204.000000)" fill="#2F2F2F" fill-rule="nonzero">
            <g id="HeaderPDF" transform="translate(316.000000, 204.000000)">
                <path d="M37,0 L37,46 L69,46 L69,0 L37,0 Z M57.0090293,10.925 L65.0993228,10.925 C65.0993228,10.925 65.0993228,10.925 65.0993228,10.925 C65.5327314,10.925 65.8216704,11.284375 65.8216704,11.64375 C65.8216704,12.075 65.4604966,12.3625 65.0993228,12.3625 L57.0090293,12.3625 C57.0090293,12.3625 57.0090293,12.3625 57.0090293,12.3625 C56.5756208,12.3625 56.2866817,12.003125 56.2866817,11.64375 C56.214447,11.284375 56.5756208,10.925 57.0090293,10.925 Z M56.214447,8.9125 C56.214447,8.48125 56.5756208,8.19375 56.9367946,8.19375 L65.027088,8.19375 C65.027088,8.19375 65.027088,8.19375 65.027088,8.19375 C65.4604966,8.19375 65.7494357,8.553125 65.7494357,8.9125 C65.7494357,9.34375 65.3882619,9.63125 65.027088,9.63125 L56.9367946,9.63125 C56.9367946,9.63125 56.9367946,9.63125 56.9367946,9.63125 C56.5756208,9.703125 56.214447,9.34375 56.214447,8.9125 Z M57.0090293,13.728125 L65.0993228,13.728125 C65.0993228,13.728125 65.0993228,13.728125 65.0993228,13.728125 C65.5327314,13.728125 65.8216704,14.0875 65.8216704,14.446875 C65.8216704,14.878125 65.4604966,15.165625 65.0993228,15.165625 L57.0090293,15.165625 C57.0090293,15.165625 57.0090293,15.165625 57.0090293,15.165625 C56.5756208,15.165625 56.2866817,14.80625 56.2866817,14.446875 C56.214447,14.0875 56.5756208,13.728125 57.0090293,13.728125 Z M53.469526,2.5875 L55.0586907,2.5875 L55.0586907,4.16875 L53.469526,4.16875 L53.469526,2.5875 Z M53.469526,5.390625 L55.0586907,5.390625 L55.0586907,6.971875 L53.469526,6.971875 L53.469526,5.390625 Z M53.469526,8.121875 L55.0586907,8.121875 L55.0586907,9.703125 L53.469526,9.703125 L53.469526,8.121875 Z M53.469526,10.925 L55.0586907,10.925 L55.0586907,12.50625 L53.469526,12.50625 L53.469526,10.925 Z M53.469526,13.65625 L55.0586907,13.65625 L55.0586907,15.2375 L53.469526,15.2375 L53.469526,13.65625 Z M46.3182844,3.45 C47.6907449,3.45 48.8465011,4.025 49.785553,4.8875 C50.6523702,5.75 51.2302483,6.971875 51.2302483,8.3375 C51.2302483,9.703125 50.6523702,10.853125 49.785553,11.7875 C48.9187359,12.65 47.6907449,13.225 46.3182844,13.225 L46.3182844,13.225 C44.9458239,13.225 43.7900677,12.65 42.8510158,11.7875 L46.3182844,8.3375 L42.8510158,4.8875 C43.7900677,4.025 45.0180587,3.45 46.3182844,3.45 Z M40.7562077,5.534375 L43.5011287,8.265625 L40.7562077,10.996875 C40.03386,10.278125 39.6004515,9.34375 39.6004515,8.265625 C39.6004515,7.259375 40.03386,6.253125 40.7562077,5.534375 Z M60.2595937,35.50625 C60.2595937,35.146875 60.5485327,34.859375 60.9097065,34.859375 C60.9097065,34.859375 60.9097065,34.859375 60.9097065,34.859375 L62.2099323,31.696875 C62.282167,31.553125 62.4266366,31.48125 62.5711061,31.553125 C62.7155756,31.625 62.7878104,31.76875 62.7155756,31.9125 L61.4153499,35.146875 C61.4875847,35.290625 61.5598194,35.3625 61.5598194,35.50625 C61.5598194,35.865625 61.2708804,36.153125 60.9097065,36.153125 C60.765237,36.153125 60.6930023,36.08125 60.6207675,36.08125 L58.0925508,37.51875 C58.0925508,37.878125 57.8036117,38.09375 57.4424379,38.09375 C57.1534989,38.09375 56.8645598,37.878125 56.7923251,37.590625 L54.2641084,36.584375 C54.1196388,36.728125 53.9751693,36.8 53.758465,36.8 C53.6139955,36.8 53.469526,36.728125 53.3972912,36.65625 L51.3024831,38.2375 C51.3024831,38.2375 51.3024831,38.2375 51.3024831,38.309375 C51.3024831,38.66875 51.013544,38.95625 50.6523702,38.95625 C50.2911964,38.95625 50.0744921,38.66875 50.0022573,38.38125 L46.3905192,36.65625 C46.2460497,36.8 46.1015801,36.871875 45.8848758,36.871875 C45.8126411,36.871875 45.7404063,36.871875 45.6681716,36.8 L42.9232506,40.178125 C42.8510158,40.25 42.778781,40.25 42.7065463,40.25 C42.6343115,40.25 42.5620767,40.25 42.5620767,40.178125 C42.489842,40.10625 42.489842,39.890625 42.5620767,39.81875 L45.3792325,36.36875 C45.3792325,36.296875 45.3069977,36.225 45.3069977,36.153125 C45.3069977,35.79375 45.5959368,35.50625 45.9571106,35.50625 C46.2460497,35.50625 46.5349887,35.721875 46.6072235,36.08125 L50.2911964,37.878125 C50.4356659,37.734375 50.5801354,37.6625 50.724605,37.6625 C50.8690745,37.6625 51.013544,37.734375 51.0857788,37.80625 L53.1805869,36.225 C53.1805869,36.225 53.1805869,36.225 53.1805869,36.225 C53.1805869,35.865625 53.469526,35.578125 53.8306998,35.578125 C54.1196388,35.578125 54.4085779,35.79375 54.4808126,36.08125 L56.9367946,37.015625 C57.0812641,36.871875 57.2257336,36.8 57.4424379,36.8 C57.5869074,36.8 57.731377,36.871875 57.8758465,36.94375 L60.2595937,35.578125 C60.2595937,35.578125 60.2595937,35.578125 60.2595937,35.50625 Z M54.0474041,27.8875 L41.0451467,27.8875 L41.0451467,27.8875 C40.6117381,27.8875 40.3227991,27.528125 40.3227991,27.16875 C40.3227991,26.7375 40.6839729,26.45 41.0451467,26.45 L54.0474041,26.45 L54.0474041,26.45 C54.4808126,26.45 54.7697517,26.809375 54.7697517,27.16875 C54.7697517,27.528125 54.4808126,27.8875 54.0474041,27.8875 Z M65.027088,43.196875 L65.027088,43.196875 L41.0451467,43.196875 C40.6117381,43.196875 40.3227991,42.8375 40.3227991,42.478125 L40.3227991,29.684375 C40.3227991,29.253125 40.6839729,28.965625 41.0451467,28.965625 L41.0451467,28.965625 C41.4785553,28.965625 41.7674944,29.325 41.7674944,29.684375 L41.7674944,41.6875 L65.027088,41.6875 C65.4604966,41.6875 65.7494357,42.046875 65.7494357,42.40625 C65.7494357,42.8375 65.4604966,43.196875 65.027088,43.196875 Z M65.027088,24.725 L65.027088,24.725 L41.0451467,24.725 C40.6117381,24.725 40.3227991,24.365625 40.3227991,24.00625 C40.3227991,23.575 40.6839729,23.2875 41.0451467,23.2875 L41.0451467,23.2875 L65.027088,23.2875 C65.4604966,23.2875 65.7494357,23.646875 65.7494357,24.00625 C65.7494357,24.365625 65.4604966,24.725 65.027088,24.725 Z M65.027088,21.5625 L65.027088,21.5625 L41.0451467,21.5625 C40.6117381,21.5625 40.3227991,21.203125 40.3227991,20.84375 C40.3227991,20.4125 40.6839729,20.125 41.0451467,20.125 L41.0451467,20.125 L65.027088,20.125 C65.4604966,20.125 65.7494357,20.484375 65.7494357,20.84375 C65.8216704,21.275 65.4604966,21.5625 65.027088,21.5625 Z M65.027088,18.4 L65.027088,18.4 L41.0451467,18.4 C40.6117381,18.4 40.3227991,18.040625 40.3227991,17.68125 C40.3227991,17.25 40.6839729,16.9625 41.0451467,16.9625 L41.0451467,16.9625 L65.027088,16.9625 C65.4604966,16.9625 65.7494357,17.321875 65.7494357,17.68125 C65.8216704,18.1125 65.4604966,18.4 65.027088,18.4 Z M65.027088,6.9 L56.9367946,6.9 C56.9367946,6.9 56.9367946,6.9 56.9367946,6.9 C56.503386,6.9 56.214447,6.540625 56.214447,6.18125 C56.214447,5.75 56.5756208,5.4625 56.9367946,5.4625 L65.027088,5.4625 C65.027088,5.4625 65.027088,5.4625 65.027088,5.4625 C65.4604966,5.4625 65.7494357,5.821875 65.7494357,6.18125 C65.8216704,6.540625 65.4604966,6.9 65.027088,6.9 Z M65.027088,4.16875 L56.9367946,4.16875 C56.9367946,4.16875 56.9367946,4.16875 56.9367946,4.16875 C56.503386,4.16875 56.214447,3.809375 56.214447,3.45 C56.214447,3.01875 56.5756208,2.73125 56.9367946,2.73125 L65.027088,2.73125 C65.027088,2.73125 65.027088,2.73125 65.027088,2.73125 C65.4604966,2.73125 65.7494357,3.090625 65.7494357,3.45 C65.8216704,3.809375 65.4604966,4.16875 65.027088,4.16875 Z" id="Report-doc"></path>
            </g>
        </g>
    </g>
</svg>