<svg height="300px" width="300px" fill="#FFFFFF"
    xmlns="http://www.w3.org/2000/svg"
    xmlns:xlink="http://www.w3.org/1999/xlink" version="1.1" x="0px" y="0px" viewBox="0 0 96 96" enable-background="new 0 0 96 96" xml:space="preserve">
    <path d="M75.5,42.464c-1.641,0-3.172,0.48-4.439,1.3c-1.097-3.048-4.112-5.3-7.561-5.3c-1.641,0-3.172,0.48-4.439,1.3  c-1.097-3.048-4.112-5.3-7.561-5.3c-1.456,0-2.828,0.38-4,1.036V18.18c0-4.252-3.588-7.72-8-7.72c-4.336,0-8,3.58-8,7.804v32.8  l-5.652-5.809c-2.888-2.896-8.16-2.788-11.132,0.18c-2.808,2.812-2.96,7.332-0.368,10.98c1.768,2.492,3.888,7.1,6.136,11.992  c5.94,12.928,12.672,27.584,22.168,27.584h22.6c0.252,0,0.504-0.049,0.744-0.141c0.72-0.279,17.508-7.188,17.508-23.943V50.268  C83.5,46.036,79.836,42.464,75.5,42.464z"/>
    <path d="M27.5,34.508V18.264c0-6.404,5.496-11.804,12-11.804c6.616,0,12,5.252,12,11.72v12.28c1.132,0,2.225,0.216,3.271,0.516  c2.633-3.36,4.133-7.408,4.133-11.716c0-5.148-2.041-9.992-5.752-13.64c-7.616-7.484-20.024-7.484-27.66,0.004  c-3.696,3.644-5.74,8.488-5.74,13.636c0,5.156,2.04,10,5.748,13.64C26.116,33.508,26.82,34,27.5,34.508z"/>
</svg>